<?xml version="1.0" standalone="no"?>
<!DOCTYPE svg PUBLIC "-//W3C//DTD SVG 20010904//EN"
 "http://www.w3.org/TR/2001/REC-SVG-20010904/DTD/svg10.dtd">
<svg version="1.0" xmlns="http://www.w3.org/2000/svg"
 width="185.000000pt" height="234.000000pt" viewBox="0 0 185.000000 234.000000"
 preserveAspectRatio="xMidYMid meet">
<metadata>
Created by potrace 1.13, written by Peter Selinger 2001-2015
</metadata>
<g transform="translate(0.000000,234.000000) scale(0.100000,-0.100000)"
fill="#000000" stroke="none">
<path d="M935 2301 c-65 -28 -82 -117 -32 -168 18 -19 27 -40 27 -61 0 -31 1
-32 45 -32 44 0 45 1 45 32 0 21 9 42 28 61 37 39 38 105 1 142 -27 28 -82 40
-114 26z"/>
<path d="M849 2005 c-345 -69 -615 -398 -669 -815 -5 -41 -10 -308 -10 -592
l0 -518 428 0 c468 1 526 6 648 57 472 198 684 863 440 1379 -56 117 -114 202
-190 278 -179 179 -418 256 -647 211z m431 -311 c103 -31 176 -93 223 -192 77
-164 30 -329 -114 -401 l-62 -31 -347 0 -347 0 -62 31 c-144 72 -191 237 -114
401 47 98 119 159 228 194 64 20 525 19 595 -2z"/>
<path d="M575 1511 c-43 -19 -70 -60 -70 -107 0 -36 6 -49 33 -76 27 -27 40
-33 77 -33 37 0 50 6 77 33 27 27 33 40 33 77 0 36 -6 50 -30 75 -33 33 -85
46 -120 31z"/>
<path d="M1295 1491 c-43 -19 -70 -60 -70 -107 0 -36 6 -49 33 -76 27 -27 40
-33 77 -33 37 0 50 6 77 33 27 27 33 40 33 77 0 36 -6 50 -30 75 -33 33 -85
46 -120 31z"/>
</g>
</svg>
